<svg width="96" height="96" viewBox="0 0 96 96" fill="none" xmlns="http://www.w3.org/2000/svg">
<path fill-rule="evenodd" clip-rule="evenodd" d="M48 0C74.5078 0 96 21.4922 96 48C96 74.5078 74.5078 96 48 96C21.4922 96 0 74.5078 0 48C0 21.4922 21.4922 0 48 0ZM42.3594 29.4141C42.3594 22.0469 53.5859 22.0391 53.5859 29.4297V49.5469L66.2656 56.2578C66.3281 56.2891 66.3906 56.3281 66.4453 56.375L66.5547 56.4531C72.4453 60.3125 66.9688 69.5859 60.6719 65.9453L60.6484 65.9297L45.3047 57.7109C43.5078 56.75 42.3438 54.8438 42.3438 52.7969H42.3516L42.3594 29.4141Z" fill="#9333EA" fill-opacity="0.48"/>
</svg>
