<svg width="500" height="682" viewBox="0 0 500 682" fill="none" xmlns="http://www.w3.org/2000/svg">
<path d="M249.889 0C112.124 0 5.90752e-05 112.169 0 249.933C-8.63406e-05 492.34 235.821 676.622 235.821 676.622C244.106 683.22 255.85 683.22 264.134 676.622C264.134 676.622 500.001 492.34 500 249.933C500 112.169 387.654 0 249.889 0ZM249.889 136.372C312.363 136.372 363.628 187.46 363.628 249.933C363.629 312.408 312.363 363.628 249.889 363.628C187.415 363.628 136.327 312.408 136.327 249.933C136.328 187.46 187.415 136.372 249.889 136.372Z" fill="black"/>
</svg>
