<?xml version="1.0" encoding="iso-8859-1"?>
<!-- Uploaded to: SVG Repo, www.svgrepo.com, Generator: SVG Repo Mixer Tools -->
<svg fill="#000000" height="800px" width="800px" version="1.1" id="Layer_1" xmlns="http://www.w3.org/2000/svg" xmlns:xlink="http://www.w3.org/1999/xlink" 
	 viewBox="0 0 512 512" xml:space="preserve">
<g transform="translate(1 1)">
	<g>
		<g>
			<path d="M509.293,451.267c0-5.12-3.413-8.533-8.533-8.533h-34.133V145.199C492.79,132.911,511,106.579,511,75.8
				C511,33.133,476.867-1,434.2-1s-76.8,34.133-76.8,76.8c0,30.499,17.446,56.63,42.667,69.058v297.876h-34.133V178.2
				c0-23.893-18.773-42.667-42.667-42.667h-59.733c0-5.12-3.413-8.533-8.533-8.533H152.6c-5.12,0-8.533,3.413-8.533,8.533H84.333
				c-23.893,0-42.667,18.773-42.667,42.667v264.533H7.533c-5.12,0-8.533,3.413-8.533,8.533v12.8C-1,491.373,16.92,511,41.667,511
				h426.667c24.747,0,42.667-19.627,40.96-46.933V451.267z M374.467,75.8c0-33.28,26.453-59.733,59.733-59.733
				S493.933,42.52,493.933,75.8c0,25.051-15.475,46.23-37.322,55.173c-0.37,0.082-0.733,0.178-1.078,0.293
				c-1.095,0.479-2.211,0.905-3.337,1.308c-5.943,1.913-12.277,2.959-18.85,2.959C400.92,135.533,374.467,109.08,374.467,75.8z
				 M245.613,144.067c0,1.47,0.291,2.654,0.853,3.722v85.878l-37.547-28.16c-3.413-2.56-6.827-2.56-10.24,0l-37.547,28.16v-89.6
				H245.613z M58.733,178.2c0-14.507,11.093-25.6,25.6-25.6h59.733v89.6c0,5.973,3.413,11.093,8.533,12.8
				c5.12,1.707,11.093,0,14.507-3.413l36.693-28.16l36.693,27.307c2.56,2.56,5.973,4.267,9.387,4.267c1.707,0,3.413,0,5.12-0.853
				c5.12-2.56,8.533-6.827,8.533-12.8V152.6h59.733c14.507,0,25.6,11.093,25.6,25.6v264.533H58.733V178.2z M493.933,464.067
				c0,15.36-7.68,29.867-25.6,29.867H41.667c-17.92,0-25.6-14.507-25.6-29.867V459.8H50.2h307.2h51.2
				c5.12,0,8.533-3.413,8.533-8.533V150.893c11.093,2.56,23.04,2.56,34.133,0v300.373c0,5.12,3.413,8.533,8.533,8.533h34.133
				V464.067z"/>
			<path d="M459.8,109.933c2.56,0,4.267-0.853,5.973-2.56c3.413-3.413,3.413-8.533,0-11.947l-25.6-25.6
				c-3.413-3.413-8.533-3.413-11.947,0s-3.413,8.533,0,11.947l25.6,25.6C455.533,109.08,457.24,109.933,459.8,109.933z"/>
			<path d="M161.133,365.933h-76.8c-5.12,0-8.533,3.413-8.533,8.533v42.667c0,5.12,3.413,8.533,8.533,8.533h76.8
				c5.12,0,8.533-3.413,8.533-8.533v-42.667C169.667,369.347,166.253,365.933,161.133,365.933z M152.6,408.6H92.867V383H152.6V408.6
				z"/>
		</g>
	</g>
</g>
</svg>