<svg width="18" height="20" viewBox="0 0 18 20" fill="none" xmlns="http://www.w3.org/2000/svg">
<path d="M9 12.0006C8.71667 12.0006 8.47933 11.9046 8.288 11.7126C8.096 11.5213 8 11.2839 8 11.0006C8 10.7173 8.096 10.4796 8.288 10.2876C8.47933 10.0963 8.71667 10.0006 9 10.0006C9.28333 10.0006 9.521 10.0963 9.713 10.2876C9.90433 10.4796 10 10.7173 10 11.0006C10 11.2839 9.90433 11.5213 9.713 11.7126C9.521 11.9046 9.28333 12.0006 9 12.0006ZM5 12.0006C4.71667 12.0006 4.479 11.9046 4.287 11.7126C4.09567 11.5213 4 11.2839 4 11.0006C4 10.7173 4.09567 10.4796 4.287 10.2876C4.479 10.0963 4.71667 10.0006 5 10.0006C5.28333 10.0006 5.521 10.0963 5.713 10.2876C5.90433 10.4796 6 10.7173 6 11.0006C6 11.2839 5.90433 11.5213 5.713 11.7126C5.521 11.9046 5.28333 12.0006 5 12.0006ZM13 12.0006C12.7167 12.0006 12.4793 11.9046 12.288 11.7126C12.096 11.5213 12 11.2839 12 11.0006C12 10.7173 12.096 10.4796 12.288 10.2876C12.4793 10.0963 12.7167 10.0006 13 10.0006C13.2833 10.0006 13.5207 10.0963 13.712 10.2876C13.904 10.4796 14 10.7173 14 11.0006C14 11.2839 13.904 11.5213 13.712 11.7126C13.5207 11.9046 13.2833 12.0006 13 12.0006ZM9 16.0006C8.71667 16.0006 8.47933 15.9046 8.288 15.7126C8.096 15.5213 8 15.2839 8 15.0006C8 14.7173 8.096 14.4799 8.288 14.2886C8.47933 14.0966 8.71667 14.0006 9 14.0006C9.28333 14.0006 9.521 14.0966 9.713 14.2886C9.90433 14.4799 10 14.7173 10 15.0006C10 15.2839 9.90433 15.5213 9.713 15.7126C9.521 15.9046 9.28333 16.0006 9 16.0006ZM5 16.0006C4.71667 16.0006 4.479 15.9046 4.287 15.7126C4.09567 15.5213 4 15.2839 4 15.0006C4 14.7173 4.09567 14.4799 4.287 14.2886C4.479 14.0966 4.71667 14.0006 5 14.0006C5.28333 14.0006 5.521 14.0966 5.713 14.2886C5.90433 14.4799 6 14.7173 6 15.0006C6 15.2839 5.90433 15.5213 5.713 15.7126C5.521 15.9046 5.28333 16.0006 5 16.0006ZM13 16.0006C12.7167 16.0006 12.4793 15.9046 12.288 15.7126C12.096 15.5213 12 15.2839 12 15.0006C12 14.7173 12.096 14.4799 12.288 14.2886C12.4793 14.0966 12.7167 14.0006 13 14.0006C13.2833 14.0006 13.5207 14.0966 13.712 14.2886C13.904 14.4799 14 14.7173 14 15.0006C14 15.2839 13.904 15.5213 13.712 15.7126C13.5207 15.9046 13.2833 16.0006 13 16.0006ZM2 20.0006C1.45 20.0006 0.979 19.8049 0.587 19.4136C0.195667 19.0216 0 18.5506 0 18.0006V4.00061C0 3.45061 0.195667 2.97994 0.587 2.58861C0.979 2.19661 1.45 2.00061 2 2.00061H3V1.00061C3 0.717277 3.09567 0.47961 3.287 0.28761C3.479 0.096277 3.71667 0.000610352 4 0.000610352C4.28333 0.000610352 4.521 0.096277 4.713 0.28761C4.90433 0.47961 5 0.717277 5 1.00061V2.00061H13V1.00061C13 0.717277 13.096 0.47961 13.288 0.28761C13.4793 0.096277 13.7167 0.000610352 14 0.000610352C14.2833 0.000610352 14.5207 0.096277 14.712 0.28761C14.904 0.47961 15 0.717277 15 1.00061V2.00061H16C16.55 2.00061 17.021 2.19661 17.413 2.58861C17.8043 2.97994 18 3.45061 18 4.00061V18.0006C18 18.5506 17.8043 19.0216 17.413 19.4136C17.021 19.8049 16.55 20.0006 16 20.0006H2ZM2 18.0006H16V8.00061H2V18.0006ZM2 6.00061H16V4.00061H2V6.00061Z" fill="white"/>
</svg>
