<svg width="20" height="20" viewBox="0 0 20 20" fill="none" xmlns="http://www.w3.org/2000/svg">
<path d="M10.9996 10.1754L13.2496 12.4254C13.433 12.6087 13.5246 12.838 13.5246 13.1134C13.5246 13.388 13.433 13.6254 13.2496 13.8254C13.0496 14.0254 12.8123 14.1254 12.5376 14.1254C12.2623 14.1254 12.0246 14.0254 11.8246 13.8254L9.69963 11.7004C9.4663 11.467 9.2913 11.2087 9.17463 10.9254C9.05797 10.642 8.99963 10.3337 8.99963 10.0004V7.00037C8.99963 6.71703 9.09563 6.47937 9.28763 6.28737C9.47897 6.09603 9.7163 6.00037 9.99963 6.00037C10.283 6.00037 10.5206 6.09603 10.7126 6.28737C10.904 6.47937 10.9996 6.71703 10.9996 7.00037V10.1754ZM9.99963 2.00037C10.283 2.00037 10.5206 2.09603 10.7126 2.28737C10.904 2.47937 10.9996 2.71703 10.9996 3.00037C10.9996 3.2837 10.904 3.52137 10.7126 3.71337C10.5206 3.9047 10.283 4.00037 9.99963 4.00037C9.7163 4.00037 9.47897 3.9047 9.28763 3.71337C9.09563 3.52137 8.99963 3.2837 8.99963 3.00037C8.99963 2.71703 9.09563 2.47937 9.28763 2.28737C9.47897 2.09603 9.7163 2.00037 9.99963 2.00037ZM17.9996 10.0004C17.9996 10.2837 17.9036 10.521 17.7116 10.7124C17.5203 10.9044 17.283 11.0004 16.9996 11.0004C16.7163 11.0004 16.479 10.9044 16.2876 10.7124C16.0956 10.521 15.9996 10.2837 15.9996 10.0004C15.9996 9.71703 16.0956 9.47937 16.2876 9.28737C16.479 9.09603 16.7163 9.00037 16.9996 9.00037C17.283 9.00037 17.5203 9.09603 17.7116 9.28737C17.9036 9.47937 17.9996 9.71703 17.9996 10.0004ZM9.99963 16.0004C10.283 16.0004 10.5206 16.0964 10.7126 16.2884C10.904 16.4797 10.9996 16.717 10.9996 17.0004C10.9996 17.2837 10.904 17.521 10.7126 17.7124C10.5206 17.9044 10.283 18.0004 9.99963 18.0004C9.7163 18.0004 9.47897 17.9044 9.28763 17.7124C9.09563 17.521 8.99963 17.2837 8.99963 17.0004C8.99963 16.717 9.09563 16.4797 9.28763 16.2884C9.47897 16.0964 9.7163 16.0004 9.99963 16.0004ZM3.99963 10.0004C3.99963 10.2837 3.90397 10.521 3.71263 10.7124C3.52063 10.9044 3.28297 11.0004 2.99963 11.0004C2.7163 11.0004 2.47863 10.9044 2.28663 10.7124C2.0953 10.521 1.99963 10.2837 1.99963 10.0004C1.99963 9.71703 2.0953 9.47937 2.28663 9.28737C2.47863 9.09603 2.7163 9.00037 2.99963 9.00037C3.28297 9.00037 3.52063 9.09603 3.71263 9.28737C3.90397 9.47937 3.99963 9.71703 3.99963 10.0004ZM9.99963 20.0004C8.6163 20.0004 7.3163 19.7377 6.09963 19.2124C4.88297 18.6877 3.82463 17.9754 2.92463 17.0754C2.02463 16.1754 1.3123 15.117 0.787634 13.9004C0.262301 12.6837 -0.000366211 11.3837 -0.000366211 10.0004C-0.000366211 8.61703 0.262301 7.31703 0.787634 6.10037C1.3123 4.8837 2.02463 3.82537 2.92463 2.92537C3.82463 2.02537 4.88297 1.3127 6.09963 0.787366C7.3163 0.262699 8.6163 0.000366211 9.99963 0.000366211C11.383 0.000366211 12.683 0.262699 13.8996 0.787366C15.1163 1.3127 16.1746 2.02537 17.0746 2.92537C17.9746 3.82537 18.687 4.8837 19.2116 6.10037C19.737 7.31703 19.9996 8.61703 19.9996 10.0004C19.9996 11.3837 19.737 12.6837 19.2116 13.9004C18.687 15.117 17.9746 16.1754 17.0746 17.0754C16.1746 17.9754 15.1163 18.6877 13.8996 19.2124C12.683 19.7377 11.383 20.0004 9.99963 20.0004ZM9.99963 18.0004C12.233 18.0004 14.1246 17.2254 15.6746 15.6754C17.2246 14.1254 17.9996 12.2337 17.9996 10.0004C17.9996 7.76703 17.2246 5.87537 15.6746 4.32537C14.1246 2.77537 12.233 2.00037 9.99963 2.00037C7.7663 2.00037 5.87463 2.77537 4.32463 4.32537C2.77463 5.87537 1.99963 7.76703 1.99963 10.0004C1.99963 12.2337 2.77463 14.1254 4.32463 15.6754C5.87463 17.2254 7.7663 18.0004 9.99963 18.0004Z" fill="#111111"/>
</svg>
