<svg width="96" height="96" viewBox="0 0 96 96" fill="none" xmlns="http://www.w3.org/2000/svg">
<g clip-path="url(#clip0_43_58)">
<path fill-rule="evenodd" clip-rule="evenodd" d="M48 0C74.51 0 96 21.49 96 48C96 74.51 74.51 96 48 96C21.49 96 0 74.51 0 48C0 21.49 21.49 0 48 0ZM26.764 49.277C27.408 45.543 31.67 43.464 35.033 45.487C35.338 45.669 35.629 45.885 35.9 46.133L35.926 46.158C37.435 47.604 39.126 49.109 40.802 50.601L42.24 51.892L59.303 33.994C60.322 32.927 61.067 32.237 62.596 31.893C67.831 30.738 71.512 37.137 67.802 41.048L46.536 63.366C44.533 65.503 40.953 65.698 38.8 63.657C37.566 62.511 36.224 61.345 34.867 60.168C32.517 58.126 30.12 56.043 28.166 53.981C26.993 52.809 26.487 50.89 26.764 49.277Z" fill="#9333EA"/>
</g>
<defs>
<clipPath id="clip0_43_58">
<rect width="96" height="96" fill="white"/>
</clipPath>
</defs>
</svg>
