<svg width="26" height="23" viewBox="0 0 26 23" fill="none" xmlns="http://www.w3.org/2000/svg">
<path d="M24.7965 5.24341L16.0465 0.660076C15.9173 0.592381 15.7722 0.556885 15.6247 0.556885C15.4773 0.556885 15.3322 0.592381 15.203 0.660076L6.45298 5.24341C6.31579 5.31535 6.20139 5.42103 6.12171 5.54944C6.04203 5.67784 6 5.82426 6 5.97341C6 6.12256 6.04203 6.26898 6.12171 6.39738C6.20139 6.52579 6.31579 6.63147 6.45298 6.70341L14.7497 11.0492V19.9817L12.0932 18.5901L11.2497 20.0492L15.203 22.1201C15.3321 22.1879 15.4772 22.2235 15.6247 22.2235C15.7722 22.2235 15.9173 22.1879 16.0465 22.1201L24.7965 17.5367C24.9337 17.4648 25.0482 17.3592 25.1279 17.2308C25.2076 17.1024 25.2497 16.9559 25.2497 16.8067V5.97341C25.2497 5.82423 25.2076 5.6778 25.1279 5.54939C25.0482 5.42098 24.9337 5.31531 24.7965 5.24341ZM15.6247 2.34174L22.5591 5.97341L15.6247 9.60507L8.69035 5.97341L15.6247 2.34174ZM23.4997 16.3142L16.4997 19.9809V11.0484L23.4997 7.38174V16.3142Z" fill="white"/>
<path d="M7.75 11.3905H0.75V9.72388H7.75V11.3905ZM9.5 18.0572H2.5V16.3905H9.5V18.0572ZM11.25 14.7239H4.25V13.0572H11.25V14.7239Z" fill="white"/>
</svg>
