<svg width="16" height="20" viewBox="0 0 16 20" fill="none" xmlns="http://www.w3.org/2000/svg">
<path d="M8 10.0006C8.55 10.0006 9.021 9.80461 9.413 9.41261C9.80433 9.02128 10 8.55061 10 8.00061C10 7.45061 9.80433 6.97961 9.413 6.58761C9.021 6.19628 8.55 6.00061 8 6.00061C7.45 6.00061 6.97933 6.19628 6.588 6.58761C6.196 6.97961 6 7.45061 6 8.00061C6 8.55061 6.196 9.02128 6.588 9.41261C6.97933 9.80461 7.45 10.0006 8 10.0006ZM8 20.0006C5.31667 17.7173 3.31267 15.5963 1.988 13.6376C0.662667 11.6796 0 9.86728 0 8.20061C0 5.70061 0.804333 3.70894 2.413 2.22561C4.021 0.742277 5.88333 0.000610352 8 0.000610352C10.1167 0.000610352 11.979 0.742277 13.587 2.22561C15.1957 3.70894 16 5.70061 16 8.20061C16 9.86728 15.3377 11.6796 14.013 13.6376C12.6877 15.5963 10.6833 17.7173 8 20.0006Z" fill="white"/>
</svg>
