<svg width="1000" height="1000" viewBox="0 0 1000 1000" fill="none" xmlns="http://www.w3.org/2000/svg">
<path d="M193.548 774.194H322.581C340.371 774.194 354.839 759.726 354.839 741.936V677.419H161.29V741.936C161.29 759.726 175.758 774.194 193.548 774.194ZM193.548 709.677H322.581L322.597 741.936H193.548V709.677Z" fill="black"/>
<path d="M451.613 548.387H419.355V580.645H451.613V548.387Z" fill="black"/>
<path d="M387.097 548.387H290.323V580.645H387.097V548.387Z" fill="black"/>
<path d="M722.839 483.871C724.645 478.806 725.806 473.419 725.806 467.742V161.29H758.065V0H241.935V161.29H274.194V467.742C274.194 473.419 275.355 478.806 277.161 483.871H0V645.161H32.2581V951.613C32.2581 978.29 53.9677 1000 80.6452 1000H435.484C462.161 1000 483.871 978.29 483.871 951.613V645.161H516.129V951.613C516.129 978.29 537.839 1000 564.516 1000H919.355C946.032 1000 967.742 978.29 967.742 951.613V645.161H1000V483.871H722.839ZM274.194 129.032V32.2581H725.806V129.032H274.194ZM451.613 951.613C451.613 960.516 444.371 967.742 435.484 967.742H80.6452C71.7581 967.742 64.5161 960.516 64.5161 951.613V645.161H451.613V951.613ZM483.871 612.903H32.2581V516.129H322.581H483.871V612.903ZM483.871 483.871H322.581C313.694 483.871 306.452 476.645 306.452 467.742V161.29H693.548V467.742C693.548 476.645 686.306 483.871 677.419 483.871H516.129H483.871ZM935.484 951.613C935.484 960.516 928.242 967.742 919.355 967.742H564.516C555.629 967.742 548.387 960.516 548.387 951.613V645.161H935.484V951.613ZM967.742 612.903H516.129V516.129H677.419H967.742V612.903Z" fill="black"/>
<path d="M677.419 774.194H806.452C824.242 774.194 838.71 759.726 838.71 741.936V677.419H645.161V741.936C645.161 759.726 659.629 774.194 677.419 774.194ZM677.419 709.677H806.452L806.468 741.936H677.419V709.677Z" fill="black"/>
<path d="M935.484 548.387H903.226V580.645H935.484V548.387Z" fill="black"/>
<path d="M870.968 548.387H774.194V580.645H870.968V548.387Z" fill="black"/>
<path d="M596.774 258.064V193.548H403.226V258.064C403.226 275.855 417.694 290.323 435.484 290.323H564.516C582.306 290.323 596.774 275.855 596.774 258.064ZM435.484 225.806H564.516L564.532 258.064H435.484V225.806Z" fill="black"/>
<path d="M693.548 64.5161H661.29V96.7742H693.548V64.5161Z" fill="black"/>
<path d="M629.032 64.5161H532.258V96.7742H629.032V64.5161Z" fill="black"/>
</svg>
