<svg width="28" height="24" viewBox="0 0 28 24" fill="none" xmlns="http://www.w3.org/2000/svg">
<path d="M23.3387 20.635C20.8724 20.6379 18.4679 20.171 16.1252 19.2343C13.7817 18.2983 11.7059 17.0595 9.89775 15.5178C8.08886 13.9769 6.63377 12.2065 5.53249 10.2068C4.43045 8.20766 3.87819 6.15468 3.87572 4.0478C3.87537 3.75382 3.9898 3.5087 4.21899 3.31244C4.44818 3.11618 4.73484 3.01785 5.07898 3.01745L9.72478 3.012C9.99244 3.01168 10.2315 3.0849 10.442 3.23164C10.6525 3.37839 10.7769 3.56606 10.8155 3.79467L11.5651 7.2236C11.6036 7.4522 11.5993 7.66028 11.5521 7.84784C11.5041 8.03604 11.3942 8.20374 11.2223 8.35093L8.47204 10.755C9.27639 11.93 10.2814 13.0313 11.4871 14.0588C12.6928 15.0863 14.0225 15.9749 15.4764 16.7245L18.1694 14.4184C18.3413 14.2712 18.566 14.1606 18.8435 14.0864C19.1203 14.0129 19.3925 13.9924 19.6602 14.0247L23.6186 14.706C23.8863 14.7547 24.1063 14.8645 24.2785 15.0355C24.4508 15.2071 24.5371 15.4072 24.5373 15.6359L24.542 19.6047C24.5423 19.8986 24.4279 20.1438 24.1987 20.34C23.9695 20.5363 23.6829 20.6346 23.3387 20.635Z" fill="white"/>
</svg>
