<svg width="500" height="473" viewBox="0 0 500 473" fill="none" xmlns="http://www.w3.org/2000/svg">
<path d="M348.783 302.95L336.13 315.527C336.13 315.527 306.058 345.43 223.975 263.811C141.892 182.194 171.964 152.293 171.964 152.293L179.93 144.371C199.558 124.856 201.408 93.5251 184.283 70.6521L149.257 23.8632C128.063 -4.44676 87.1099 -8.18648 62.8179 15.9674L19.218 59.3198C7.173 71.2965 -0.89866 86.8218 0.0802276 104.045C2.58439 148.106 22.5196 242.908 133.76 353.516C251.725 470.811 362.411 475.472 407.675 471.252C421.991 469.919 434.441 462.627 444.475 452.649L483.936 413.416C510.572 386.93 503.061 341.525 468.98 323L415.911 294.15C393.533 281.986 366.272 285.558 348.783 302.95Z" fill="black"/>
</svg>
