<svg width="109" height="123" viewBox="0 0 109 123" fill="none" xmlns="http://www.w3.org/2000/svg">
<path d="M91.36 103.58L102.57 115.81L94.83 122.88L84.02 110.98C79.91 113.71 74.96 115.32 69.65 115.32C62.49 115.32 56.01 112.42 51.33 107.74C46.63 103.04 43.75 96.56 43.75 89.42C43.75 82.26 46.65 75.78 51.33 71.1C56.03 66.4 62.51 63.52 69.65 63.52C76.81 63.52 83.29 66.42 87.97 71.1C92.67 75.8 95.55 82.28 95.55 89.42C95.55 94.65 94 99.53 91.33 103.62L91.36 103.58ZM105.23 8.54C105.83 8.42 106.45 8.54 106.96 8.85C107.84 9.21 108.46 10.07 108.46 11.08L108.97 81.65C109.01 82.52 108.59 83.38 107.79 83.85L104.74 85.67C104.65 84.79 103.48 80.77 104.11 80.39L103.64 15.07L79.94 30.01V55.31C78.36 54.81 76.38 54.42 74.72 54.14V30.71L43.18 26.64L42.13 57.13L30.93 49.5L19.73 55.83L22.04 23.95L5.34001 22.46V88.59L33.37 91.63C33.48 93.28 33.7 95.14 34.02 96.72L2.31001 93.2C1.02001 93.13 7.60786e-06 92.07 7.60786e-06 90.76V18.99C-0.0299924 18.03 0.520008 17.1 1.45001 16.69L38.98 0.199997C39.37 0.0299971 39.82 -0.0400029 40.27 0.00999713L105.23 8.54ZM70.02 8.82L46.97 21.7L77.57 25.61L98.55 12.56L70.02 8.82ZM25.03 19.43L47.84 5.91L40.32 4.92L11.3 17.68L25.03 19.43ZM84.71 74.36C80.86 70.51 75.55 68.13 69.68 68.13C63.8 68.13 58.49 70.51 54.65 74.36C50.8 78.21 48.42 83.52 48.42 89.39C48.42 95.27 50.8 100.58 54.65 104.42C58.5 108.27 63.81 110.65 69.68 110.65C75.56 110.65 80.87 108.27 84.71 104.42C88.56 100.57 90.94 95.26 90.94 89.39C90.94 83.51 88.55 78.2 84.71 74.36Z" fill="black"/>
</svg>
