<svg width="19" height="25" viewBox="0 0 19 25" fill="none" xmlns="http://www.w3.org/2000/svg">
<path d="M9.50033 12.3997C10.142 12.3997 10.6915 12.171 11.1488 11.7137C11.6054 11.2571 11.8337 10.708 11.8337 10.0664C11.8337 9.4247 11.6054 8.8752 11.1488 8.41787C10.6915 7.96131 10.142 7.73303 9.50033 7.73303C8.85866 7.73303 8.30955 7.96131 7.85299 8.41787C7.39566 8.8752 7.16699 9.4247 7.16699 10.0664C7.16699 10.708 7.39566 11.2571 7.85299 11.7137C8.30955 12.171 8.85866 12.3997 9.50033 12.3997ZM9.50033 24.0664C6.36977 21.4025 4.03177 18.928 2.48633 16.6429C0.940103 14.3585 0.166992 12.2441 0.166992 10.2997C0.166992 7.38303 1.10538 5.05942 2.98216 3.32887C4.85816 1.59831 7.03088 0.733032 9.50033 0.733032C11.9698 0.733032 14.1425 1.59831 16.0185 3.32887C17.8953 5.05942 18.8337 7.38303 18.8337 10.2997C18.8337 12.2441 18.0609 14.3585 16.5155 16.6429C14.9693 18.928 12.6309 21.4025 9.50033 24.0664Z" fill="white"/>
</svg>
