<svg width="1000" height="1000" viewBox="0 0 1000 1000" fill="none" xmlns="http://www.w3.org/2000/svg">
<path d="M985.166 883.334V894.834H985.168V908.334V908.693L985.19 909.051C988.153 956.441 957.708 988.5 916.668 988.5H83.334C42.3451 988.5 11.5 956.356 11.5 908.332V883.332C11.5 880.945 12.2454 879.85 12.7147 879.381C13.1841 878.911 14.279 878.166 16.666 878.166H83.332H94.832V866.666V350C94.832 309.683 126.351 278.166 166.666 278.166H283.334H294.834V266.666C294.834 264.279 295.579 263.184 296.049 262.715C296.518 262.245 297.613 261.5 300 261.5H500.002C502.389 261.5 503.484 262.245 503.953 262.715C504.423 263.184 505.168 264.279 505.168 266.666V278.166H516.668H633.334C673.651 278.166 705.168 309.685 705.168 350V866.668V878.168H716.668H783.334H794.834V866.668V284.879V277.725L788.417 274.563C742.976 252.171 711.5 205.066 711.5 150C711.5 73.0173 773.017 11.5 850 11.5C926.983 11.5 988.5 73.0173 988.5 150C988.5 205.421 955.728 252.928 908.445 275.136L901.834 278.241V285.545V866.668V878.168H913.334H980C982.387 878.168 983.482 878.913 983.951 879.383C984.421 879.852 985.166 880.947 985.166 883.334ZM896.26 268.987L897.219 268.775L898.128 268.403C944.879 249.265 978.166 203.85 978.166 150C978.166 78.6487 921.351 21.834 850 21.834C778.649 21.834 721.834 78.6487 721.834 150C721.834 221.243 778.541 278.166 848.332 278.166C862.397 278.166 875.956 275.927 888.672 271.834L888.849 271.777L889.024 271.714C891.169 270.946 893.403 270.101 895.658 269.135C895.825 269.089 896.024 269.04 896.26 268.987ZM493.166 283.334V271.834H481.666H316.664H305.164V283.334V458.334V481.334L323.564 467.534L396.898 412.534L396.898 412.534C398.746 411.148 399.718 411.084 399.998 411.084C400.279 411.084 401.251 411.148 403.098 412.534L403.098 412.534L476.432 467.534L494.832 481.334V458.334V290.604V287.762L493.509 285.248C493.374 284.992 493.166 284.552 493.166 283.334ZM294.832 300V288.5H283.332H166.666C131.981 288.5 105.166 315.315 105.166 350V866.666V878.166H116.666H683.33H694.83V866.666V350C694.83 315.315 668.015 288.5 633.33 288.5H516.664H505.164V300V473.336C505.164 479.665 501.922 484.517 494.855 488.05C494.284 488.335 493.616 488.502 489.998 488.502C487.071 488.502 483.182 486.923 479.796 483.536L479.203 482.943L478.53 482.442L406.864 429.108L399.891 423.92L392.997 429.211L321.331 484.211L320.734 484.669L320.201 485.201C316.443 488.958 309.279 490.972 303.635 489.09C298.969 487.535 294.832 482.424 294.832 475V300ZM978.166 908.334V896.834H978.164V888.498H966.664H899.998C897.611 888.498 896.516 887.753 896.047 887.283C895.577 886.814 894.832 885.719 894.832 883.332V296.666V282.21L880.746 285.461C860.782 290.068 839.216 290.068 819.252 285.461L805.166 282.21V296.666V883.334C805.166 885.721 804.421 886.816 803.951 887.285C803.482 887.755 802.387 888.5 800 888.5H700H100H33.334H21.834V900V908.334C21.834 925.047 25.9846 942.285 36.0089 955.651C46.3564 969.448 62.2995 978.168 83.334 978.168H916.666C937.701 978.168 953.644 969.448 963.991 955.651C974.015 942.285 978.166 925.047 978.166 908.334Z" fill="black" stroke="black" stroke-width="23"/>
<path d="M900 216.666C905 216.666 908.334 215 911.666 211.666C918.332 205 918.332 195 911.666 188.332L861.666 138.332C855 131.666 845 131.666 838.332 138.332C831.664 144.998 831.666 154.998 838.332 161.666L888.332 211.666C891.666 215 895 216.666 900 216.666Z" fill="black"/>
<path d="M316.666 716.666H166.666C156.666 716.666 150 723.332 150 733.332V816.666C150 826.666 156.666 833.332 166.666 833.332H316.666C326.666 833.332 333.332 826.666 333.332 816.666V733.332C333.334 723.334 326.666 716.666 316.666 716.666ZM300 800H183.334V750H300V800Z" fill="black"/>
</svg>
